<?xml version="1.0" encoding="UTF-8" standalone="no"?>
<svg
   version="1.1"
   id="svg5"
   sodipodi:docname="asset_circle.svg"
   xml:space="preserve"
   inkscape:version="1.2.1 (9c6d41e410, 2022-07-14)"
   xmlns:inkscape="http://www.inkscape.org/namespaces/inkscape"
   xmlns:sodipodi="http://sodipodi.sourceforge.net/DTD/sodipodi-0.dtd"
   xmlns="http://www.w3.org/2000/svg"
   xmlns:svg="http://www.w3.org/2000/svg"><sodipodi:namedview
     id="namedview8"
     pagecolor="#ffffff"
     bordercolor="#000000"
     borderopacity="0.25"
     inkscape:showpageshadow="2"
     inkscape:pageopacity="0.0"
     inkscape:pagecheckerboard="0"
     inkscape:deskcolor="#d1d1d1"
     showgrid="false"
     inkscape:zoom="1.275903"
     inkscape:cx="-67.403242"
     inkscape:cy="76.808345"
     inkscape:window-width="2560"
     inkscape:window-height="1369"
     inkscape:window-x="-8"
     inkscape:window-y="-8"
     inkscape:window-maximized="1"
     inkscape:current-layer="g204" /><defs
     id="defs2" /><g
     id="layer1"
     transform="matrix(0.25643225,0,0,0.25643225,-12.545578,-16.698799)"><g
       style="fill:#1e90ff"
       id="g204"
       transform="matrix(0,26.249559,-26.249559,0,671.24779,48.752205)"><path
         d="M 0,0 H 24 V 24 H 0 Z"
         fill="none"
         id="path192" /><path
         d="M 19,3 H 5 C 3.89,3 3,3.9 3,5 V 9 H 5 V 5 H 19 V 19 H 5 L 5,8.9691252 H 3 L 3,19 c 0,1.1 0.89,2 2,2 h 14 c 1.1,0 2,-0.9 2,-2 V 5 C 21,3.9 20.1,3 19,3 Z"
         id="path194"
         sodipodi:nodetypes="sssccccccccssssss" /><circle
         style="fill:#1e90ff;fill-opacity:1;stroke-width:0.148561"
         id="path738"
         cx="-12"
         cy="12"
         r="5.064971"
         transform="rotate(-90)" /></g></g></svg>
