<?xml version="1.0" encoding="UTF-8"?>
<!-- Created with Inkscape (http://www.inkscape.org/) -->
<svg width="1280" height="720" version="1.1" viewBox="0 0 338.67 190.5" xmlns="http://www.w3.org/2000/svg">
 <rect x="-.35544" y=".076119" width="339.64" height="190.84" fill="#008080"/>
 <g transform="matrix(.77863 0 0 .77863 96.793 16.654)">
  <g fill="#fff">
   <g transform="matrix(2.0873 0 0 2.0873 -3.737 3.6966)">
    <g fill="#fff">
     <path d="m66.761 42.935v12.532h-0.086l-0.809 0.408c-0.406 0.206-6.99 3.444-18.352 3.444-3.002 0-6.348-0.231-9.992-0.802l-3.311-0.604c-2.453-0.5-5.018-1.14-7.711-1.981l-0.865-0.271-0.031-0.192v-12.534c0-7.158 4.9-13.18 11.52-14.929 2.377 2.219 5.557 3.588 9.059 3.588s6.68-1.37 9.06-3.588c5.146 1.36 9.241 5.307 10.813 10.36l0.643 3.207c0.04 0.449 0.062 0.903 0.062 1.362zm-20.577-14.928c7.733 0 14.004-6.27 14.004-14.003 0-7.734-6.271-14.004-14.004-14.004-7.735 0-14.004 6.27-14.004 14.004 0 7.733 6.268 14.003 14.004 14.003zm17.334 30.218c-0.358 0.181-6.188 3.049-16.246 3.049-2.658 0-5.619-0.205-8.848-0.709l-2.932-0.536c-2.172-0.443-4.441-1.009-6.826-1.753l-0.637-0.2c-0.076 0.254-0.129 0.519-0.129 0.795l5.85 30.71c0 1.539 1.246 2.785 2.785 2.785h7.301v-16.643c0-0.949 0.77-1.717 1.719-1.717s1.717 0.77 1.717 1.717v16.643h7.623c1.537 0 2.785-1.246 2.785-2.785l6.631-30.71c0-0.337-0.07-0.657-0.181-0.956z" fill="#fff"/>
    </g>
   </g>
   <path d="m13.72 76.34 60.032-14.186-3.8731 21.752-54.901 5.523s-7.7628 0.06259-8.2771-5.7585c-0.49528-5.606 7.0198-7.3301 7.0198-7.3301z"/>
   <path d="m171.71 76.34-60.032-14.186 3.8731 21.752 54.901 5.523s7.7628 0.06259 8.2771-5.7585c0.49528-5.606-7.0198-7.3301-7.0198-7.3301z"/>
  </g>
 </g>
</svg>
