<?xml version="1.0" encoding="UTF-8"?>
<!-- Created with Inkscape (http://www.inkscape.org/) -->
<svg width="1280" height="720" version="1.1" viewBox="0 0 338.67 190.5" xmlns="http://www.w3.org/2000/svg">
 <rect x="-.35544" y=".076119" width="339.64" height="190.84" fill="#8c4ad6"/>
 <g transform="matrix(.30657 0 0 .30657 90.984 17.015)" fill="#fff">
  <g fill="#fff">
   <g fill="#fff">
    <g fill="#fff">
     <path d="m512 341.33c0-35.249-28.751-64-64-64h-131.65c2.358-6.673 3.654-13.85 3.654-21.333v-42.667c0-9.151-5.773-16.934-13.867-19.963l28.952-28.952c8.331-8.331 8.331-21.839 0-30.17s-21.839-8.331-30.17 0l-27.582 27.582v-55.163c0-11.782-9.551-21.333-21.333-21.333s-21.333 9.551-21.333 21.333v55.163l-27.582-27.582c-8.331-8.331-21.839-8.331-30.17 0s-8.331 21.839 0 30.17l28.952 28.952c-8.094 3.03-13.867 10.812-13.867 19.963v42.667c0 7.483 1.296 14.66 3.654 21.333h-131.65c-35.249 0-64 28.751-64 64 0 27.773 17.854 51.5 42.667 60.321v89.013c0 11.782 9.551 21.333 21.333 21.333h64c10.169 0 18.925-7.178 20.919-17.15l17.903-89.517h178.36l17.903 89.517c1.995 9.972 10.751 17.15 20.92 17.15h64c11.782 0 21.333-9.551 21.333-21.333v-89.013c24.813-8.821 42.667-32.548 42.667-60.321zm-277.33-85.333v-21.333h42.667v21.333c0 11.791-9.542 21.333-21.333 21.333s-21.334-9.542-21.334-21.333zm-124.16 213.33h-25.178v-64h37.978zm316.16 0h-25.178l-12.8-64h37.977v64zm21.333-106.67h-384c-11.685 0-21.333-9.649-21.333-21.333 0-11.685 9.648-21.334 21.333-21.334h384c11.685 0 21.333 9.649 21.333 21.333 0 11.685-9.648 21.334-21.333 21.334z"/>
     <path d="m106.67 234.67h42.667c11.782 0 21.333-9.551 21.333-21.333s-9.551-21.333-21.333-21.333h-21.333v-149.33h256v149.33h-21.333c-11.782 0-21.333 9.551-21.333 21.333s9.551 21.333 21.333 21.333h42.667c11.782 0 21.333-9.551 21.333-21.333v-192c-1e-3 -11.782-9.552-21.333-21.334-21.333h-298.67c-11.782 0-21.333 9.551-21.333 21.333v192c0 11.782 9.551 21.334 21.333 21.334z"/>
    </g>
   </g>
  </g>
 </g>
</svg>
