<?xml version="1.0" encoding="UTF-8"?>
<svg version="1.1" viewBox="0 0 202.72 204.73" xml:space="preserve" xmlns="http://www.w3.org/2000/svg"><defs><style>.cls-1{fill:#fff;}</style></defs><g data-name="Ebene 2"><g fill="#fff" data-name="Ebene 1"><path d="m9.575 40.225c-5.287 4.68e-4 -9.5729 4.2692-9.5733 9.5352v104.45c0.0015567 5.2652 4.2871 9.5327 9.5733 9.5332h54.079v-29.068h-34.466v-65.383h34.466v-29.07zm129.41 0v29.07h34.466v65.383h-34.466v29.068h54.079c5.2862-4.7e-4 9.5718-4.268 9.5733-9.5332v-104.45c-4.7e-4 -5.2659-4.2863-9.5347-9.5733-9.5352z" color="#000000" style="-inkscape-stroke:none"/><g transform="matrix(1.0262 0 0 1.0262 -36.182 114.78)"><path d="m106.08-110.94c-7.7141 0-14.119 6.4051-14.119 14.119 0 7.7141 6.4051 14.119 14.119 14.119 7.3444 0 8.9903 1.5828 10.57 3.7949h2e-3c1.7778 2.4889 3.5469 8.1435 3.5469 17.385v98.832c0 9.2408-1.7704 14.895-3.5488 17.385-1.5796 2.2107-3.2286 3.793-10.57 3.793-7.7148 0-14.119 6.4051-14.119 14.119s6.4044 14.119 14.119 14.119c11.017 0 20.904-3.3314 28.238-9.8203 7.3344 6.4882 17.219 9.8203 28.236 9.8203 7.7147 0 14.119-6.4044 14.119-14.119s-6.4044-14.119-14.119-14.119c-7.3418 0-8.9907-1.5822-10.57-3.793l-2e-3 -2e-3c-1.778-2.491-3.5469-8.1442-3.5469-17.383v-98.832c0-9.2412 1.771-14.896 3.5488-17.385 1.5801-2.2122 3.2258-3.7949 10.57-3.7949 7.7141 0 14.119-6.4044 14.119-14.119 0-7.7148-6.4051-14.119-14.119-14.119-11.017 0-20.902 3.3323-28.236 9.8203-7.3345-6.4886-17.221-9.8203-28.238-9.8203z" clip-rule="evenodd" color="#000000" fill="#fff" fill-rule="evenodd"/></g></g></g></svg>
