<svg xmlns="http://www.w3.org/2000/svg" viewBox="0 0 11.25 11.25"><defs><style>.cls-1{fill:#ffce35;}.cls-2{fill:#221f20;}</style></defs><g id="Ebene_2" data-name="Ebene 2"><g id="Ebene_1-2" data-name="Ebene 1"><path class="cls-1" d="M.73,11.25a.63.63,0,0,1-.62-1l5-9.85c.28-.55.73-.55,1,0l5,9.85a.63.63,0,0,1-.62,1Z"/><path class="cls-2" d="M4.84,4.05l.51,3.46a.28.28,0,0,0,.55,0l.51-3.46A.81.81,0,1,0,4.84,4.05Z"/><path class="cls-2" d="M5.63,8.14a.79.79,0,0,1,0,1.58.79.79,0,1,1,0-1.58Z"/></g></g></svg>