<?xml version="1.0" encoding="UTF-8"?>
<!-- Created with Inkscape (http://www.inkscape.org/) -->
<svg width="1280" height="720" version="1.1" viewBox="0 0 338.67 190.5" xml:space="preserve" xmlns="http://www.w3.org/2000/svg"><rect x="-.35544" y=".076119" width="339.64" height="190.84" fill="#008080"/><rect x="-.35544" y=".076119" width="339.64" height="190.84" fill="#94af4c" stroke="#feffff"/><style type="text/css">
	.st0{fill:none;stroke:#ffffff;stroke-width:2;stroke-linecap:round;stroke-linejoin:round;stroke-miterlimit:10;}
</style><g transform="matrix(4.9208 0 0 4.9208 94.169 14.584)" fill="none" stroke="#fff"><circle class="st0" cx="9" cy="7" r="5"/><circle class="st0" cx="19" cy="7" r="5"/><path class="st0" d="m21 25h-14c-1.1 0-2-0.9-2-2v-6c0-1.1 0.9-2 2-2h14c1.1 0 2 0.9 2 2v6c0 1.1-0.9 2-2 2z"/><polygon class="st0" points="29 25 23 22 23 18 29 15"/><polyline class="st0" points="10 31 14 25 18 31"/><circle class="st0" cx="9" cy="7" r="1"/><circle class="st0" cx="19" cy="7" r="1"/></g></svg>
