<?xml version="1.0" encoding="UTF-8"?>
<!-- Created with Inkscape (http://www.inkscape.org/) -->
<svg width="1280" height="720" version="1.1" viewBox="0 0 338.67 190.5" xmlns="http://www.w3.org/2000/svg">
 <rect x="-.35544" y=".076119" width="339.64" height="190.84" fill="#008080"/>
 <rect x="-.35544" y=".076119" width="339.64" height="190.84" fill="#e5b542"/>
 <g transform="matrix(.35946 0 0 .35946 89.705 22.957)" fill="#fff">
  <g fill="#fff">
   <path d="m124.76 164.96c-8e-3 -5.184-0.776-10.188-2.185-14.915l250.71-50.455-12.103-60.125c-5.348-26.57-31.313-43.838-57.886-38.49l-229.18 46.123c-26.571 5.348-43.838 31.314-38.49 57.886l3.846 19.108c-11.985 9.619-19.668 24.383-19.668 40.947 0 20.105 11.311 37.562 27.911 46.376v139.03c0 27.104 22.051 49.154 49.155 49.154h233.78c27.104 0 49.154-22.051 49.154-49.154v-185.49zm-28.625 0.079c0 13.154-10.702 23.855-23.855 23.855s-23.855-10.701-23.855-23.855c0-13.153 10.702-23.855 23.855-23.855s23.855 10.701 23.855 23.855zm231.14-123.9c0.821 1.458 1.438 3.063 1.785 4.791l5.637 27.999-34.479 6.938zm-87.249 5.996 50.432-10.149-36.186 53.128-50.431 10.149zm-96.376 19.396 50.43-10.149-36.183 53.129-50.431 10.148zm-75.9 31.988c-1.782-8.857 3.973-17.513 12.83-19.295l17.125-3.446-25.056 36.789c-0.123-1e-3 -0.244-9e-3 -0.367-9e-3 -0.569 0-1.133 0.025-1.699 0.043zm13.534 132.82c-0.517-1.591-0.804-3.286-0.804-5.05v-9.408c13.247-2.079 24.842-9.117 32.844-19.15h2.324zm86.719 11.336h-51.442l45.955-44.944h51.442zm98.308 0h-51.439l45.954-44.944h51.439zm80.719-16.386c0 9.035-7.353 16.386-16.387 16.386h-17.469l33.854-33.108z" fill="#fff"/>
  </g>
 </g>
</svg>
